<?xml version="1.0" standalone="no"?><!DOCTYPE svg PUBLIC "-//W3C//DTD SVG 1.1//EN" "http://www.w3.org/Graphics/SVG/1.1/DTD/svg11.dtd"><svg t="1675842755703" class="icon" viewBox="0 0 1024 1024" version="1.1" xmlns="http://www.w3.org/2000/svg" p-id="3324" width="260" height="260" xmlns:xlink="http://www.w3.org/1999/xlink"><path d="M512 1024C229.727924 1024 0 794.272076 0 512S229.727924 0 512 0 1024 229.727924 1024 512 794.272076 1024 512 1024z m0-950.682578C270.101384 73.317422 73.317422 270.101384 73.317422 512S270.101384 950.682578 512 950.682578 950.682578 753.898616 950.682578 512 753.898616 73.317422 512 73.317422z" fill="" p-id="3325"></path><path d="M336.038186 469.231504a138.081146 138.081146 0 1 1 138.081146-138.081146 138.22778 138.22778 0 0 1-138.081146 138.081146z m0-227.28401a89.202864 89.202864 0 1 0 89.202864 89.202864A89.300621 89.300621 0 0 0 336.038186 241.947494zM690.405728 469.231504a138.081146 138.081146 0 1 1 138.081146-138.081146 138.22778 138.22778 0 0 1-138.081146 138.081146z m0-227.28401a89.202864 89.202864 0 1 0 89.202864 89.202864A89.300621 89.300621 0 0 0 690.405728 241.947494zM510.778043 586.539379a80.649165 80.649165 0 1 1 80.649165-80.649164 80.649165 80.649165 0 0 1-80.649165 80.649164z m0-112.420047a31.770883 31.770883 0 1 0 31.770883 31.770883 31.770883 31.770883 0 0 0-31.770883-31.770883zM328.706444 821.155131a138.081146 138.081146 0 1 1 138.081145-138.081145 138.22778 138.22778 0 0 1-138.081145 138.081145z m0-227.284009a89.202864 89.202864 0 1 0 89.202864 89.202864 89.300621 89.300621 0 0 0-89.202864-89.202864zM683.073986 821.155131a138.081146 138.081146 0 1 1 138.081145-138.081145 138.22778 138.22778 0 0 1-138.081145 138.081145z m0-227.284009a89.202864 89.202864 0 1 0 89.202864 89.202864 89.300621 89.300621 0 0 0-89.202864-89.202864zM987.341289 1024H513.221957a24.439141 24.439141 0 0 1 0-48.878282h474.119332a24.439141 24.439141 0 0 1 0 48.878282zM987.341289 921.355609h-196.441814a24.439141 24.439141 0 0 1 0-48.878282H987.341289a24.439141 24.439141 0 0 1 0 48.878282z" fill="" p-id="3326"></path></svg>