<?xml version="1.0" standalone="no"?><!DOCTYPE svg PUBLIC "-//W3C//DTD SVG 1.1//EN" "http://www.w3.org/Graphics/SVG/1.1/DTD/svg11.dtd"><svg t="1676367069864" class="icon" viewBox="0 0 1024 1024" version="1.1" xmlns="http://www.w3.org/2000/svg" p-id="3529" width="305" height="305" xmlns:xlink="http://www.w3.org/1999/xlink"><path d="M955.456 765.12a41.792 41.792 0 0 0-34.368-32.64 8.256 8.256 0 0 1-6.08-3.904 8.256 8.256 0 0 1-0.384-7.104 41.856 41.856 0 0 0-11.136-45.696 165.76 165.76 0 0 0-60.096-34.56 41.728 41.728 0 0 0-45.056 13.12c-1.216 1.472-3.328 3.264-6.336 3.264s-5.12-1.728-6.336-3.264a41.6 41.6 0 0 0-45.056-13.184 166.4 166.4 0 0 0-60.224 34.624 41.728 41.728 0 0 0-11.136 45.632 8.064 8.064 0 0 1-0.384 7.104 8.256 8.256 0 0 1-6.08 3.904 41.728 41.728 0 0 0-34.304 32.64 166.72 166.72 0 0 0 0 68.928c3.584 16.96 17.28 29.952 34.432 32.64 1.92 0.32 4.544 1.216 6.08 3.904a8.256 8.256 0 0 1 0.384 7.104 41.6 41.6 0 0 0 11.136 45.696c17.344 15.616 37.568 27.2 60.096 34.56a41.728 41.728 0 0 0 45.056-13.056c1.216-1.472 3.328-3.264 6.336-3.264s5.12 1.728 6.336 3.264a41.728 41.728 0 0 0 45.056 13.12c22.528-7.296 42.688-18.88 59.968-34.432 12.8-11.52 17.216-29.696 11.136-45.76a8.192 8.192 0 0 1 0.384-7.168 8.256 8.256 0 0 1 6.08-3.904 41.728 41.728 0 0 0 34.496-32.64 166.144 166.144 0 0 0 0-68.928z m-40.832 60.288a49.92 49.92 0 0 0-35.904 24.256 49.92 49.92 0 0 0-3.264 42.752 123.584 123.584 0 0 1-44.992 25.792 49.92 49.92 0 0 0-38.528-18.432 49.664 49.664 0 0 0-38.528 18.432 125.44 125.44 0 0 1-45.056-25.856 49.728 49.728 0 0 0-39.04-66.944 123.712 123.712 0 0 1 0-51.776 49.92 49.92 0 0 0 35.648-24.256 49.92 49.92 0 0 0 3.328-42.624c12.928-11.648 28.224-20.416 45.12-25.92a49.92 49.92 0 0 0 38.528 18.432c15.68 0 29.44-7.296 38.592-18.432 16.896 5.504 32.128 14.272 45.056 25.856a49.728 49.728 0 0 0 39.04 66.944 122.624 122.624 0 0 1 0 51.776z" fill="#ffffff" p-id="3530"></path><path d="M791.936 736.96c-34.496 0-62.592 28.096-62.592 62.592s28.096 62.592 62.592 62.592 62.592-28.096 62.592-62.592-28.096-62.592-62.592-62.592z m0 83.456a20.864 20.864 0 1 1 0-41.728 20.864 20.864 0 0 1 0 41.728zM670.336 588.736c0.256 0.128 0.512 0.064 0.768 0.128l1.472 0.512 0.064-0.256a35.392 35.392 0 0 0 22.912-67.008l-0.384-0.064c-8.512-3.392-17.472-6.144-26.304-9.088a247.424 247.424 0 0 0 104.192-201.472 248.192 248.192 0 1 0-496.384 0c0 83.072 41.216 156.224 103.936 201.28-175.68 57.984-304.832 218.368-315.776 410.688 0 0.128 0.256 0.192 0.256 0.256a35.328 35.328 0 0 0 68.608 13.504c1.344-3.456 1.536-7.04 1.728-10.56l0.256-0.192a390.016 390.016 0 0 1 389.248-366.336c51.264 0 100.032 10.176 144.832 28.16 0.192 0.192 0.32 0.384 0.576 0.448zM347.648 311.424a177.28 177.28 0 1 1 354.56 0 177.28 177.28 0 0 1-354.56 0z" fill="#ffffff" p-id="3531"></path></svg>